<svg width="226" height="226" viewBox="0 0 226 226" fill="none" xmlns="http://www.w3.org/2000/svg">
<circle cx="112.71" cy="112.71" r="112.71" fill="#EEEEEE"/>
<g clip-path="url(#clip0_448_3348)">
<path d="M153.856 180.094C158.685 180.094 162.612 176.166 162.612 171.337V48.7522C162.612 43.9232 158.685 39.9961 153.856 39.9961H96.9415C93.3558 39.9961 88.9121 41.8371 86.3729 44.3741L61.9171 68.8277C59.38 71.3648 57.5391 75.8085 57.5391 79.3985V171.337C57.5391 176.166 61.4662 180.094 66.2952 180.094H153.856ZM153.856 48.7522V171.337H66.2952V79.3985H88.1854C93.0144 79.3985 96.9415 75.4714 96.9415 70.6424V48.7522H153.856ZM88.1854 54.9427V70.6424H72.4857L88.1854 54.9427Z" fill="#B82729"/>
<path d="M110.076 76.1067H136.344C137.505 76.1067 138.619 75.6454 139.44 74.8244C140.261 74.0033 140.722 72.8898 140.722 71.7286C140.722 70.5675 140.261 69.4539 139.44 68.6329C138.619 67.8118 137.505 67.3506 136.344 67.3506H110.076C108.915 67.3506 107.801 67.8118 106.98 68.6329C106.159 69.4539 105.698 70.5675 105.698 71.7286C105.698 72.8898 106.159 74.0033 106.98 74.8244C107.801 75.6454 108.915 76.1067 110.076 76.1067ZM136.344 89.2408H83.8077C82.6466 89.2408 81.533 89.7021 80.712 90.5231C79.8909 91.3441 79.4297 92.4577 79.4297 93.6189C79.4297 94.78 79.8909 95.8936 80.712 96.7146C81.533 97.5356 82.6466 97.9969 83.8077 97.9969H136.344C137.505 97.9969 138.619 97.5356 139.44 96.7146C140.261 95.8936 140.722 94.78 140.722 93.6189C140.722 92.4577 140.261 91.3441 139.44 90.5231C138.619 89.7021 137.505 89.2408 136.344 89.2408ZM136.344 111.131H83.8077C82.6466 111.131 81.533 111.592 80.712 112.413C79.8909 113.234 79.4297 114.348 79.4297 115.509C79.4297 116.67 79.8909 117.784 80.712 118.605C81.533 119.426 82.6466 119.887 83.8077 119.887H136.344C137.505 119.887 138.619 119.426 139.44 118.605C140.261 117.784 140.722 116.67 140.722 115.509C140.722 114.348 140.261 113.234 139.44 112.413C138.619 111.592 137.505 111.131 136.344 111.131ZM136.344 133.021H83.8077C82.6466 133.021 81.533 133.482 80.712 134.304C79.8909 135.125 79.4297 136.238 79.4297 137.399C79.4297 138.56 79.8909 139.674 80.712 140.495C81.533 141.316 82.6466 141.777 83.8077 141.777H136.344C137.505 141.777 138.619 141.316 139.44 140.495C140.261 139.674 140.722 138.56 140.722 137.399C140.722 136.238 140.261 135.125 139.44 134.304C138.619 133.482 137.505 133.021 136.344 133.021ZM136.344 154.911H83.8077C82.6466 154.911 81.533 155.373 80.712 156.194C79.8909 157.015 79.4297 158.128 79.4297 159.29C79.4297 160.451 79.8909 161.564 80.712 162.385C81.533 163.206 82.6466 163.668 83.8077 163.668H136.344C137.505 163.668 138.619 163.206 139.44 162.385C140.261 161.564 140.722 160.451 140.722 159.29C140.722 158.128 140.261 157.015 139.44 156.194C138.619 155.373 137.505 154.911 136.344 154.911Z" fill="#B82729"/>
</g>
<defs>
<clipPath id="clip0_448_3348">
<rect width="140.097" height="140.097" fill="white" transform="translate(40.0273 41.082)"/>
</clipPath>
</defs>
</svg>
